<?xml version="1.0" encoding="utf-8"?>
<!-- Generator: Adobe Illustrator 21.0.2, SVG Export Plug-In . SVG Version: 6.00 Build 0)  -->
<svg version="1.1" id="Layer_1" xmlns="http://www.w3.org/2000/svg" xmlns:xlink="http://www.w3.org/1999/xlink" x="0px" y="0px"
	 viewBox="0 0 206.8 47.8" style="enable-background:new 0 0 206.8 47.8;" xml:space="preserve">
<style type="text/css">
	.st0{fill:#FFFFFF;}
	.st1{fill:#8FC7E8;}
	.st2{fill:none;stroke:#FFFFFF;stroke-miterlimit:10;}
</style>
<g>
	<path class="st0" d="M45.4,22.9c0,0-1.2,2.8-2.9,5.4c-1.5,2.2-4.4,6.4-10.4,8.8c5.1-3.2,6.7-5.1,8.5-7.9c2-3.1,2.8-5.3,3.4-8.5
		c0.6-3.2,0.7-8.4,0.7-8.4H42c0,0,0.4,3,0.1,6.1c-0.2,2.6-0.6,7.9-4.8,13c-1.6,2-3.5,3.8-6.1,5.3c-3.6,2-7.4,2.7-7.4,2.7
		c6.4-0.2,8.8-1.1,11.8-2.6c3.3-1.7,5.1-3.2,7.2-5.7c2.1-2.5,4.8-6.9,4.8-6.9L45.4,22.9z"/>
	<path class="st1" d="M36.8,39.7c3.1-1.1,7.6-3.5,7.6-3.5l-1.3-2.4c0,0-2.4,1.8-5.2,3.2c-2.4,1.1-7.1,3.4-13.5,2.4
		c5.5-0.2,10.3-3.2,12.9-7.7l0,0c0,0,0,0,0-0.1c0.2-0.3,0.3-0.6,0.5-1c2.6-5,3-7.4,3.1-10.5c0.2-3.7-0.2-6-1.3-9.1s-3.5-7.6-3.5-7.6
		l-2.4,1.3c0,0,1.8,2.4,3.2,5.2c1.1,2.4,3.4,7,2.4,13.4c-0.3-6-1.1-8.4-2.6-11.3C35,8.7,33.5,6.9,31,4.8C28.6,2.7,24.2,0,24.2,0
		l-1.4,2.3c0,0,2.8,1.2,5.4,2.9c2.2,1.5,6.4,4.4,8.8,10.5c0-0.1-0.1-0.1-0.1-0.2c-0.1-0.1-0.2-0.3-0.3-0.4c-3-4.7-4.9-6.2-7.5-7.9
		c-3.1-2-5.3-2.8-8.5-3.4s-8.4-0.7-8.4-0.7v2.7c0,0,3-0.4,6.1-0.1c2.6,0.2,7.7,0.6,12.8,4.6l0,0c-5.3-2.8-7.7-3.2-11-3.4
		c-3.7-0.2-6,0.2-9.1,1.3s-7.6,3.5-7.6,3.5L4.7,14c0,0,2.4-1.8,5.2-3.2c2.4-1.1,7-3.4,13.5-2.4c-0.4,0-0.8,0-1.2,0.1
		C17,8.8,14.8,9.6,12,11c-3.3,1.7-5.1,3.2-7.2,5.7S0,23.6,0,23.6L2.3,25c0,0,1.2-2.8,2.9-5.4c1.5-2.1,4.3-6.4,10.3-8.7
		c-0.2,0.1-0.5,0.3-0.7,0.5c-4.5,2.9-6,4.8-7.7,7.4c-2,3.1-2.8,5.3-3.4,8.5C3.2,30.4,3,35.6,3,35.6h2.7c0,0-0.4-3-0.1-6.1
		c0.2-2.6,0.6-7.7,4.6-12.7c0,0.1-0.1,0.1-0.1,0.2C7.4,22.1,7,24.6,6.8,27.7c-0.2,3.7,0.2,6,1.3,9.1c1.1,3.1,3.5,7.6,3.5,7.6
		l2.4-1.3c0,0-1.8-2.4-3.2-5.2c-1.1-2.4-3.4-7-2.4-13.4c0.3,6,1.1,8.4,2.6,11.3c1.7,3.3,3.2,5.1,5.7,7.2c2.5,2.1,6.9,4.8,6.9,4.8
		l1.4-2.3c0,0-2.8-1.2-5.4-2.9c-2.2-1.5-6.4-4.4-8.8-10.5c3.2,5.1,5.1,6.7,7.9,8.5c3.1,2,5.3,2.8,8.5,3.4c3.2,0.6,8.4,0.7,8.4,0.7
		V42c0,0-3,0.4-6.1,0.1c-2.6-0.2-7.7-0.6-12.8-4.6c5.3,2.8,7.8,3.2,11,3.4C31.4,41.2,33.7,40.8,36.8,39.7z M23.9,9.9
		c7.7,0,14,6.3,14,14s-6.3,14-14,14s-14-6.3-14-14S16.2,9.9,23.9,9.9z"/>
</g>
<line class="st2" x1="59.8" y1="4.2" x2="59.8" y2="43.6"/>
<g>
	<path class="st0" d="M77.2,15c0-0.5-0.3-0.7-0.7-0.7h-1.4v-2.1h2.5c1.4,0,2,0.6,2,2v18.6c0,0.5,0.3,0.7,0.7,0.7h7.8
		c0.5,0,0.7-0.2,0.7-0.7v-1.6H91v2.3c0,1.4-0.6,2-2,2h-9.7c-1.4,0-2-0.6-2-2V15z"/>
	<path class="st0" d="M102.9,25.3h0.9v-0.2c0-3.5-1.3-4.7-4.3-4.7c-0.8,0-3.3,0.2-3.3,1.5v1.1h-2.2v-1.6c0-2.3,4-2.8,5.5-2.8
		c5.3,0,6.6,2.8,6.6,6.4v8c0,0.5,0.3,0.7,0.7,0.7h1.4v2H106c-1.4,0-2-0.6-2-2c0-0.7,0-1.2,0-1.2H104c0,0-1.4,3.6-5.6,3.6
		c-2.8,0-5.7-1.6-5.7-5C92.7,25.5,100,25.3,102.9,25.3z M98.7,34.1c3.2,0,5.1-3.3,5.1-6.2v-0.8h-1c-2.6,0-7.9,0.1-7.9,3.8
		C95,32.5,96.2,34.1,98.7,34.1z"/>
	<path class="st0" d="M111.9,21.6c0-0.5-0.3-0.7-0.7-0.7h-1.4v-2h2.3c1.4,0,2,0.6,2,1.9v0.8c0,0.7-0.1,1.2-0.1,1.2h0.1
		c0.8-2.3,3.5-4.2,6.1-4.2c3.1,0,4.7,1.4,5.2,4.2h0.1c0.9-2.3,3.3-4.2,6.2-4.2c4.1,0,5.6,2.4,5.6,6.5v8c0,0.5,0.3,0.7,0.7,0.7h1.4v2
		H137c-1.4,0-2-0.6-2-2v-8.1c0-2.7-0.6-5-3.6-5c-2.5,0-4.6,2.3-5.3,4.7c-0.2,0.7-0.3,1.5-0.3,2.4v7.9h-2.3V25.6c0-2.5-0.4-5-3.5-5
		c-2.7,0-4.8,2.4-5.5,4.9c-0.2,0.7-0.3,1.5-0.3,2.2v7.9h-2.3V21.6z"/>
	<path class="st0" d="M142.9,21.6c0-0.5-0.3-0.7-0.7-0.7h-1.4v-2h2.3c1.4,0,2,0.6,2,1.8c0,0.7,0,1.1,0,1.1h0.1c0,0,1.3-3.3,5.8-3.3
		c4.5,0,7.3,3.6,7.3,8.8c0,5.3-3.2,8.8-7.5,8.8c-4.1,0-5.5-3.2-5.5-3.2h-0.1c0,0,0.1,0.6,0.1,1.5v8h-2.3V21.6z M150.5,34.1
		c3,0,5.4-2.5,5.4-6.8c0-4.1-2.2-6.7-5.3-6.7c-2.8,0-5.4,2-5.4,6.8C145.1,30.7,147,34.1,150.5,34.1z"/>
	<path class="st0" d="M162.5,21.6c0-0.5-0.3-0.7-0.7-0.7h-1.4v-2h2.3c1.4,0,2,0.6,2,1.9v1.1c0,0.7-0.1,1.3-0.1,1.3h0.1
		c0.8-2.5,2.7-4.5,5.3-4.5c0.5,0,0.9,0.1,0.9,0.1v2.2c0,0-0.4-0.1-0.8-0.1c-2.4,0-4.1,1.9-4.9,4.3c-0.3,1.1-0.5,2.2-0.5,3.3v7.1
		h-2.3V21.6z"/>
	<path class="st0" d="M180.6,18.5c4.6,0,7,3.6,7,7.7c0,0.4-0.1,1.1-0.1,1.1h-12.9c0.1,4.2,3,6.7,6.5,6.7c3.1,0,5-2.1,5-2.1l1.1,1.7
		c0,0-2.4,2.4-6.2,2.4c-5,0-8.8-3.6-8.8-8.8C172.4,21.8,176.1,18.5,180.6,18.5z M185.3,25.6c-0.1-3.5-2.3-5.2-4.7-5.2
		c-2.8,0-5.2,1.8-5.8,5.2H185.3z"/>
	<path class="st0" d="M193.2,40.6c1.5,0,2.5-1.2,3.1-2.7l1-2.3l-5.9-14c-0.3-0.6-0.6-0.8-1.2-0.8h-0.3v-2h1c1.5,0,2,0.3,2.6,1.8
		l4.3,10.5c0.3,0.8,0.6,1.8,0.6,1.8h0.1c0,0,0.2-1,0.6-1.8l4.1-10.5c0.6-1.5,1.1-1.8,2.6-1.8h1v2h-0.3c-0.6,0-0.9,0.2-1.2,0.8
		L198,39.2c-0.9,2.1-2.6,3.5-4.8,3.5c-2.3,0-3.6-1.6-3.6-1.6l1.1-1.7C190.6,39.4,191.7,40.6,193.2,40.6z"/>
</g>
</svg>
