<?xml version="1.0" encoding="utf-8"?>
<!-- Generator: Adobe Illustrator 21.0.2, SVG Export Plug-In . SVG Version: 6.00 Build 0)  -->
<svg version="1.1" id="Layer_1" xmlns="http://www.w3.org/2000/svg" xmlns:xlink="http://www.w3.org/1999/xlink" x="0px" y="0px"
	 viewBox="0 0 141.1 141.1" style="enable-background:new 0 0 141.1 141.1;" xml:space="preserve">
<style type="text/css">
	.st0{stroke:#0084A9;stroke-miterlimit:10;}
	.st1{display:none;fill:#0084A9;}
	.st2{display:none;fill:none;stroke:#0084A9;stroke-miterlimit:10;}
	.st3{fill:#FFFFFF;}
</style>
<path d="M70.6,0C31.7,0,0,31.7,0,70.6c0,38.9,31.7,70.6,70.6,70.6c38.9,0,70.6-31.7,70.6-70.6C141.1,31.7,109.5,0,70.6,0z"/>
<path class="st0" d="M70.6,70.6"/>
<path class="st1" d="M47.9,71.4c-7.1-3-11.8-10.3-10.9-18.7c0.9-8.3,7.6-14.9,15.8-15.8c8.7-1,16.3,4.3,19,11.8
	c0.9,2.6,1.1,5.4,0.7,8.1c-0.4,3.2-1,9.6,0.3,15.9c-6.4-1.2-12.8-0.7-15.9-0.3C53.8,72.9,50.7,72.6,47.9,71.4z"/>
<line class="st2" x1="72.8" y1="72.8" x2="54.8" y2="54.8"/>
<path class="st3" d="M70.5,133.2C36,133.2,8,105.1,8,70.6C8,36.1,36,8,70.5,8c34.5,0,62.6,28.1,62.6,62.6
	C133.1,105.1,105,133.2,70.5,133.2z"/>
<g>
	<path d="M35.4,47.2c-3.5-1.5-5.9-5.2-5.5-9.3c0.5-4.1,3.8-7.5,7.9-7.9c4.3-0.5,8.2,2.1,9.5,5.9c0.5,1.3,0.5,2.7,0.3,4.1
		c-0.2,1.6-0.5,4.8,0.2,8c-3.2-0.6-6.4-0.4-8-0.2C38.4,47.9,36.8,47.8,35.4,47.2z"/>
	<path d="M105.8,94c3.5,1.5,5.9,5.2,5.5,9.3c-0.5,4.1-3.8,7.5-7.9,7.9c-4.3,0.5-8.2-2.1-9.5-5.9c-0.5-1.3-0.5-2.7-0.3-4.1
		c0.2-1.6,0.5-4.8-0.2-8c3.2,0.6,6.4,0.4,8,0.2C102.8,93.2,104.3,93.4,105.8,94z"/>
	<path d="M62.2,29.1c-1.4-3.5-0.5-7.8,2.7-10.5c3.2-2.6,8-2.6,11.2,0c3.4,2.7,4.3,7.3,2.5,10.9c-0.6,1.2-1.5,2.3-2.6,3.1
		c-1.3,1-3.7,3-5.5,5.8c-1.8-2.7-4.3-4.8-5.5-5.7C63.8,31.8,62.8,30.6,62.2,29.1z"/>
	<path d="M78.9,112c1.4,3.5,0.5,7.8-2.7,10.5c-3.2,2.6-8,2.6-11.2,0c-3.4-2.7-4.3-7.3-2.5-10.9c0.6-1.2,1.5-2.3,2.6-3.1
		c1.3-1,3.7-3,5.5-5.8c1.8,2.7,4.3,4.8,5.5,5.7C77.3,109.4,78.3,110.6,78.9,112z"/>
	<path d="M94,35.4c1.5-3.5,5.2-5.9,9.3-5.5c4.1,0.5,7.5,3.8,7.9,7.9c0.5,4.3-2.1,8.2-5.9,9.5c-1.3,0.5-2.7,0.5-4.1,0.3
		c-1.6-0.2-4.8-0.5-8,0.2c0.6-3.2,0.4-6.4,0.2-8C93.2,38.4,93.4,36.8,94,35.4z"/>
	<path d="M47.2,105.8c-1.5,3.5-5.2,5.9-9.3,5.5c-4.1-0.5-7.5-3.8-7.9-7.9c-0.5-4.3,2.1-8.2,5.9-9.5c1.3-0.5,2.7-0.5,4.1-0.3
		c1.6,0.2,4.8,0.5,8-0.2c-0.6,3.2-0.4,6.4-0.2,8C47.9,102.8,47.8,104.3,47.2,105.8z"/>
	<path d="M112,62.2c3.5-1.4,7.8-0.5,10.5,2.7c2.6,3.2,2.6,8,0,11.2c-2.7,3.4-7.3,4.3-10.9,2.5c-1.2-0.6-2.3-1.5-3.1-2.6
		c-1-1.3-3-3.7-5.8-5.5c2.7-1.8,4.8-4.3,5.7-5.5C109.4,63.8,110.6,62.8,112,62.2z"/>
	<path d="M29.1,78.9c-3.5,1.4-7.8,0.5-10.5-2.7c-2.6-3.2-2.6-8,0-11.2c2.7-3.4,7.3-4.3,10.9-2.5c1.2,0.6,2.3,1.5,3.1,2.6
		c1,1.3,3,3.7,5.8,5.5c-2.7,1.8-4.8,4.3-5.7,5.5C31.8,77.3,30.6,78.3,29.1,78.9z"/>
</g>
<g>
	<path d="M47.1,66.6c-2.2,0-4.2-1.3-5-3.5c-0.7-2.2,0.2-4.7,2.3-5.9c2.1-1.2,4.7-0.8,6.3,0.9c0.5,0.6,0.9,1.3,1.1,2
		c0.3,0.9,0.8,2.6,1.9,4.1c-1.8,0.4-3.4,1.3-4.1,1.8C48.8,66.3,47.9,66.6,47.1,66.6z"/>
	<path d="M94.1,74.5c2.2,0,4.2,1.3,5,3.5c0.7,2.2-0.2,4.7-2.3,5.9c-2.1,1.2-4.7,0.8-6.3-0.9c-0.5-0.6-0.9-1.3-1.1-2
		c-0.3-0.9-0.8-2.6-1.9-4.1c1.8-0.4,3.4-1.3,4.1-1.8C92.4,74.8,93.2,74.5,94.1,74.5z"/>
	<path d="M56.7,51.2c-1.6-1.5-2.1-3.9-1-6c1.1-2.1,3.5-3.2,5.8-2.6c2.4,0.6,3.9,2.8,3.8,5c0,0.8-0.3,1.5-0.6,2.2
		c-0.4,0.8-1.2,2.4-1.5,4.2c-1.6-1-3.3-1.5-4.2-1.7C58.2,52.1,57.4,51.8,56.7,51.2z"/>
	<path d="M84.4,90c1.6,1.5,2.1,3.9,1,6c-1.1,2.1-3.5,3.2-5.8,2.6c-2.4-0.6-3.9-2.8-3.8-5c0-0.8,0.3-1.5,0.6-2.2
		c0.4-0.8,1.2-2.4,1.5-4.2c1.6,1,3.3,1.5,4.2,1.7C83,89,83.8,89.4,84.4,90z"/>
	<path d="M74.5,47.1c0-2.2,1.3-4.2,3.5-5c2.2-0.7,4.7,0.2,5.9,2.3c1.2,2.1,0.8,4.7-0.9,6.3c-0.6,0.5-1.3,0.9-2,1.1
		c-0.9,0.3-2.6,0.8-4.1,1.9c-0.4-1.8-1.3-3.4-1.8-4.1C74.8,48.8,74.5,47.9,74.5,47.1z"/>
	<path d="M66.6,94.1c0,2.2-1.3,4.2-3.5,5c-2.2,0.7-4.7-0.2-5.9-2.3c-1.2-2.1-0.8-4.7,0.9-6.3c0.6-0.5,1.3-0.9,2-1.1
		c0.9-0.3,2.6-0.8,4.1-1.9c0.4,1.8,1.3,3.4,1.8,4.1C66.3,92.4,66.6,93.2,66.6,94.1z"/>
	<path d="M90,56.7c1.5-1.6,3.9-2.1,6-1c2.1,1.1,3.2,3.5,2.6,5.8c-0.6,2.4-2.8,3.9-5,3.8c-0.8,0-1.5-0.3-2.2-0.6
		c-0.8-0.4-2.4-1.2-4.2-1.5c1-1.6,1.5-3.3,1.7-4.2C89,58.2,89.4,57.4,90,56.7z"/>
	<path d="M51.2,84.4c-1.5,1.6-3.9,2.1-6,1c-2.1-1.1-3.2-3.5-2.6-5.8c0.6-2.4,2.8-3.9,5-3.8c0.8,0,1.5,0.3,2.2,0.6
		c0.8,0.4,2.4,1.2,4.2,1.5c-1,1.6-1.5,3.3-1.7,4.2C52.1,83,51.8,83.8,51.2,84.4z"/>
</g>
<g>
	<path d="M58,73.1c-1.1,0.4-2.4,0.2-3.2-0.8c-0.8-1-0.8-2.4,0-3.4c0.8-1,2.2-1.3,3.3-0.8c0.4,0.2,0.7,0.5,0.9,0.8
		c0.3,0.4,0.9,1.1,1.7,1.7c-0.8,0.6-1.4,1.3-1.7,1.7C58.8,72.6,58.4,72.9,58,73.1z"/>
	<path d="M83.1,68.1c1.1-0.4,2.4-0.2,3.2,0.8c0.8,1,0.8,2.4,0,3.4c-0.8,1-2.2,1.3-3.3,0.8c-0.4-0.2-0.7-0.5-0.9-0.8
		c-0.3-0.4-0.9-1.1-1.7-1.7c0.8-0.6,1.4-1.3,1.7-1.7C82.3,68.6,82.7,68.3,83.1,68.1z"/>
	<path d="M59.9,63.4c-1.1-0.5-1.8-1.6-1.6-2.8c0.1-1.2,1.2-2.3,2.4-2.4c1.3-0.1,2.5,0.7,2.9,1.8c0.1,0.4,0.2,0.8,0.1,1.2
		c-0.1,0.5-0.2,1.4,0,2.4c-1-0.2-1.9-0.1-2.4-0.1C60.8,63.7,60.4,63.6,59.9,63.4z"/>
	<path d="M81.2,77.7c1.1,0.5,1.8,1.6,1.6,2.8c-0.1,1.2-1.2,2.3-2.4,2.4c-1.3,0.1-2.5-0.7-2.9-1.8c-0.1-0.4-0.2-0.8-0.1-1.2
		c0.1-0.5,0.2-1.4,0-2.4c1,0.2,1.9,0.1,2.4,0.1C80.3,77.5,80.8,77.5,81.2,77.7z"/>
	<path d="M68.1,58c-0.4-1.1-0.2-2.4,0.8-3.2c1-0.8,2.4-0.8,3.4,0c1,0.8,1.3,2.2,0.8,3.3c-0.2,0.4-0.5,0.7-0.8,0.9
		c-0.4,0.3-1.1,0.9-1.7,1.7c-0.6-0.8-1.3-1.4-1.7-1.7C68.6,58.8,68.3,58.4,68.1,58z"/>
	<path d="M73.1,83.1c0.4,1.1,0.2,2.4-0.8,3.2c-1,0.8-2.4,0.8-3.4,0c-1-0.8-1.3-2.2-0.8-3.3c0.2-0.4,0.5-0.7,0.8-0.9
		c0.4-0.3,1.1-0.9,1.7-1.7c0.6,0.8,1.3,1.4,1.7,1.7C72.6,82.3,72.9,82.7,73.1,83.1z"/>
	<path d="M77.7,59.9c0.5-1.1,1.6-1.8,2.8-1.6c1.2,0.1,2.3,1.2,2.4,2.4c0.1,1.3-0.7,2.5-1.8,2.9c-0.4,0.1-0.8,0.2-1.2,0.1
		c-0.5-0.1-1.4-0.2-2.4,0c0.2-1,0.1-1.9,0.1-2.4C77.5,60.8,77.5,60.4,77.7,59.9z"/>
	<path d="M63.4,81.2c-0.5,1.1-1.6,1.8-2.8,1.6c-1.2-0.1-2.3-1.2-2.4-2.4c-0.1-1.3,0.7-2.5,1.8-2.9c0.4-0.1,0.8-0.2,1.2-0.1
		c0.5,0.1,1.4,0.2,2.4,0c-0.2,1-0.1,1.9-0.1,2.4C63.7,80.3,63.6,80.8,63.4,81.2z"/>
</g>
</svg>
